@startuml
hide methods
left to right direction

class Plataforma {
  -String designacao
}

class AreaAtividade {
  -String codigo
  -String descBreve
  -String descDetalhada
 
}

class CompetenciaTecnica {
  -String codigo
  -String descBreve
  -String descDetalhada
}

class Organizacao {
  -String nome
  -String NIF
  -String website
  -String telefone
  -String email
}

class Colaborador {
  -String nome
  -String funcao
  -String telefone
  -String email
}

class EnderecoPostal {
  -String local
  -String codPostal
  -String localidade
}

class Freelancer {
  -String nome
  -String telefone
  -String email
}

class Administrativo {
  -String nome
  -String telefone
  -String email
}

class Utilizador {
  -String nome
  -String email
  -String password
}
class Tarefa {
  -String referencia
  -String designacaçao
  -String descricaoInformal
  -String descricaoTecnica
  -String duracao
  -double custo
  -String categoria
}
class CategoriadeTarefa {
-String descricao 
}
class Gestor {
-String nome
-String funcao
-String telefone 
-String email
}
class ObrigatoriedadeCT {
-boolean obrgCT
-CompetenciaTecnica comp
}

Administrativo "1" -- "1" Plataforma : trabalha para >
Administrativo "1" -- "*" CategoriadeTarefa : define  >
Administrativo "1" -- "*" CompetenciaTecnica : define  >
Administrativo "1" -- "*" AreaAtividade : define  >
Administrativo "1" -- "*" Utilizador : atua como  >
AreaAtividade "1" -- "*" ObrigatoriedadeCT : tem >
Plataforma "1" -- "*" CategoriadeTarefa : possui >
Plataforma "1" -- "*" AreaAtividade : possui >
Plataforma "1" -- "*" CompetenciaTecnica : possui >
Plataforma "1" -- "*" Organizacao : tem registadas >
Plataforma "1" -- "*" Freelancer : tem/usa  >
Plataforma "1" -- "*" Administrativo : tem  >
CompetenciaTecnica "*" -- "*" AreaAtividade : referente a >
CompetenciaTecnica "*" -- "*" ObrigatoriedadeCT : Tem >
Organizacao "1" -- "**" Gestor: tem >
Organizacao "1" -- "*" Colaborador: tem  >
Organizacao "1" -- "1" EnderecoPostal: localizada em >
Organizacao "1" -- "*" Tarefa: possui >
Gestor "1" -- "*" Colaborador : especifica >
Gestor "1" -- "1" Colaborador : é um (papel de) >
Freelancer "1" -- "1" Utilizador: atua como >
Colaborador "1" -- "1" Utilizador: atua como >
Colaborador "1" -- "*" Tarefa: define >  
Colaborador "1" -- "1" Organizacao: trabalha para >
Tarefa "1" -- "1" CategoriadeTarefa : possui >
CategoriadeTarefa "1" -- "*" AreaAtividade : referente >
CategoriadeTarefa "1" -- "*" CompetenciaTecnica : referente >



@enduml