@startuml
hide methods
left to right direction


 class Plataforma {
  -String designacao
}
class AreaAtividade {
  -String codigo
  -String descBreve
  -String descDetalhada
 }
class Organizacao {
  -String nome
  -String NIF
  -String website
  -String telefone
  -String email
}

class Colaborador {
  -String nome
  -String funcao
  -String telefone
  -String email
}

class Gestor {
-String nome
-String funcao
-String telefone 
-String email
}



class Utilizador {
  -String nome
  -String email
  -String password
}
class Tarefa {
  -String referencia
  -String designacaçao
  -String descricaoInformal
  -String descricaoTecnica
  -String duracao
  -double custo
  -String categoria
}
class CategoriadeTarefa {
-String descricao 

class competenciaTecnicaObrigatoriaOpcional {
-boolean competenciaObrigatoria
-boolean competenciaOpcional
}

Plataforma "1" -- "*" Organizacao : tem registadas >
Organizacao "1" -- "**" Gestor: tem >
Organizacao "1" -- "*" Colaborador: tem  >

Colaborador "1" -- "1" Utilizador: atua como >
Colaborador "1" -- "*" Tarefa: define >  
Colaborador "1" -- "1" Organizacao: trabalha para >
Tarefa "1" -- "1" CategoriadeTarefa : possui >
CategoriadeTarefa "1" -- "*" AreaAtividade : referente >
CategoriadeTarefa "1" -- "*" CompetenciaTecnica : referente >



@enduml