@startuml
hide methods
left to right direction
skinparam classAttributeIconSize 0


class Plataforma {
  -String designacao
}

class Freelancer {
  -String Nome
  -String NIF
  -String EnderecoPostal
  -String ContactoTelefonico
  -HabilitacaoAcademica habilitacaoAcademica
  -ReconhecimentoCompetencia reconhecimentoCompetencia
}

class HabilitacaoAcademica{
-String grauHabilitacao
-String designacaoCurso
-String instituicao
-String mediaCurso

}

class ReconhecimentoCompetencia{
-String data
-CompetenciaTecnica competencia
-String grauProficiencia
}

class CompetenciaTecnica {
  -String codigo
  -String descBreve
  -String descDetalhada
}

class CaraterCT {
  -Boolean obrigatoria
}

class Administrativo {

}

class Utilizador {
  -String nome
  -String email
  -String password
}





Plataforma "1" -- "*" CompetenciaTecnica : possui >
CompetenciaTecnica "1" -- "*" CaraterCT : possui >
Administrativo "1" -- "*" CompetenciaTecnica: especifica >
Administrativo "0..1" -- "1" Utilizador: atua como >
Plataforma "1" -- "*" Administrativo : tem >
Plataforma "1" -- "*" Freelancer : tem >
Administrativo "1" -- "*" Freelancer : regista >
Freelancer "0..1" -- "1" Utilizador: atua como >
Freelancer "1" -- "1" HabilitacaoAcademica : possui >
Freelancer "1" -- "*" ReconhecimentoCompetencia : possui >
ReconhecimentoCompetencia "1" -- "1" CompetenciaTecnica: possui >

@enduml
